<svg xmlns="http://www.w3.org/2000/svg" viewBox="0 0 64 64">
  <defs>
    <linearGradient id="bg" x1="0%" y1="0%" x2="100%" y2="100%">
      <stop offset="0%" style="stop-color:#10b981"/>
      <stop offset="100%" style="stop-color:#059669"/>
    </linearGradient>
  </defs>
  
  <!-- Background -->
  <rect width="64" height="64" rx="14" fill="url(#bg)"/>
  
  <!-- Wallet -->
  <rect x="12" y="20" width="32" height="24" rx="4" fill="#ffffff"/>
  <rect x="12" y="20" width="32" height="8" rx="4" fill="#f0fdf4"/>
  
  <!-- Clasp -->
  <circle cx="38" cy="32" r="4" fill="#10b981"/>
  
  <!-- Up Arrow -->
  <g transform="translate(52, 16)">
    <circle cx="0" cy="0" r="8" fill="#22c55e"/>
    <path d="M0 -4 L3 1 L1 1 L1 4 L-1 4 L-1 1 L-3 1 Z" fill="#ffffff"/>
  </g>
  
  <!-- Down Arrow -->
  <g transform="translate(52, 48)">
    <circle cx="0" cy="0" r="8" fill="#ef4444"/>
    <path d="M0 4 L3 -1 L1 -1 L1 -4 L-1 -4 L-1 -1 L-3 -1 Z" fill="#ffffff"/>
  </g>
  
  <!-- Coin -->
  <circle cx="20" cy="36" r="6" fill="#fbbf24"/>
  <text x="20" y="39" text-anchor="middle" fill="#92400e" font-size="8" font-weight="bold">₭</text>
</svg>
